<svg width="106" height="106" viewBox="0 0 106 106" fill="none" xmlns="http://www.w3.org/2000/svg">
<rect x="1" y="1" width="104" height="104" rx="8.6" fill="white"/>
<path d="M65.4437 65.7117C72.2558 65.7117 77.7781 60.1894 77.7781 53.3773C77.7781 46.5652 72.2558 41.043 65.4437 41.043C58.6317 41.043 53.1094 46.5652 53.1094 53.3773C53.1094 60.1894 58.6317 65.7117 65.4437 65.7117Z" stroke="black" stroke-width="6" stroke-linecap="round" stroke-linejoin="round"/>
<path d="M65.4405 16.374H40.7718C33.9598 16.374 28.4375 21.8963 28.4375 28.7084C28.4375 35.5204 33.9598 41.0427 40.7718 41.0427H65.4405C72.2526 41.0427 77.7749 35.5204 77.7749 28.7084C77.7749 21.8963 72.2526 16.374 65.4405 16.374Z" stroke="black" stroke-width="6" stroke-linecap="round" stroke-linejoin="round"/>
<path d="M40.7719 41.0427C37.5006 41.0427 34.3633 42.3422 32.0502 44.6554C29.737 46.9685 28.4375 50.1058 28.4375 53.3771C28.4375 56.6483 29.737 59.7856 32.0502 62.0988C34.3633 64.4119 37.5006 65.7114 40.7719 65.7114H53.1062M40.7719 65.7114C38.3324 65.7114 35.9476 66.4348 33.9193 67.7901C31.8909 69.1454 30.31 71.0718 29.3764 73.3256C28.4428 75.5794 28.1986 78.0594 28.6745 80.4521C29.1504 82.8447 30.3252 85.0425 32.0502 86.7675C33.7751 88.4925 35.9729 89.6672 38.3655 90.1431C40.7582 90.619 43.2382 90.3748 45.492 89.4412C47.7458 88.5077 49.6722 86.9267 51.0275 84.8984C52.3828 82.87 53.1062 80.4853 53.1062 78.0458V16.374" stroke="black" stroke-width="6" stroke-linecap="round" stroke-linejoin="round"/>
<rect x="1" y="1" width="104" height="104" rx="8.6" stroke="black" stroke-width="2"/>
</svg>
