<svg width="106" height="106" viewBox="0 0 106 106" fill="none" xmlns="http://www.w3.org/2000/svg">
<rect width="106" height="106" rx="9.6" fill="black"/>
<path d="M70.3745 43.2056C70.3745 43.2056 64.8209 60.579 64.3671 62.0138C62.9686 51.1253 61.5569 40.2386 60.132 29.3535C50.6687 29.3535 45.6088 36.0717 42.9348 43.1629L35.6146 62.0565C35.5718 60.7014 34.5873 43.3678 34.5873 43.3678C34.0051 34.6797 26.0257 29.3905 19.5703 29.3905L27.387 76.6458C37.3013 76.6031 42.6465 69.9248 45.4461 62.8336C45.4461 62.8336 51.4107 47.4671 51.6561 46.7697C51.6989 47.4244 55.9369 76.643 55.9369 76.643C65.8911 76.643 71.2392 70.3745 74.1159 63.5311L88.0626 29.3934C78.2311 29.3934 73.0485 36.0746 70.3745 43.2056Z" fill="white"/>
</svg>
