<svg width="256" height="257" viewBox="0 0 256 257" fill="none" xmlns="http://www.w3.org/2000/svg">
<rect width="256" height="256" transform="translate(0 0.5)" fill="black" style="fill:black;fill:black;fill-opacity:1;"/>
<path d="M79.6192 124.721C74.8945 122.471 68.9779 119.64 65.3173 115.876C62.1391 112.578 60.8479 109.351 60.8479 104.723C60.8479 98.0151 64.92 92.8352 69.4461 90.5C63.8984 91.1369 59.1169 92.8918 55.6975 95.595C50.689 99.4021 48.1634 104.695 48.1634 111.361C48.1634 116.569 50.0221 120.971 53.9949 125.188C57.4285 128.797 62.5931 131.684 68.0556 134.741L69.7441 135.69C75.8877 139.058 81.1942 142.129 83.8048 145.667C85.4507 147.988 86.1317 150.097 86.1317 152.772C86.1317 158.73 82.386 163.712 76.1856 166.217C82.5846 165.524 88.1039 163.5 92.0483 160.358C96.5319 156.678 98.9156 151.71 98.9156 146.035C98.9297 135.378 90.9274 130.481 79.6192 124.721Z" fill="white" style="fill:white;fill:white;fill-opacity:1;"/>
<path d="M47 147.592C47.0568 148.031 47.1135 148.484 47.1561 148.922C47.8655 154.796 48.5324 160.372 49.3127 163.613C54.3212 165.396 62.2384 166.472 70.7799 166.5C66.1686 165.085 61.5148 162.367 56.9035 158.419C53.9523 155.914 50.1215 152.22 47 147.592Z" fill="white" style="fill:white;fill:white;fill-opacity:1;"/>
<path d="M199.526 91.1228C196.561 91.1511 193.482 91.1794 190.644 91.1794C189.793 91.1794 188.885 91.1794 187.934 91.1652L143.708 165.835L162.324 165.764L207.415 91.0662C205.641 91.0803 201.498 91.0945 199.526 91.1228Z" fill="white" style="fill:white;fill:white;fill-opacity:1;"/>
<path d="M178.03 165.835H201.654L205.159 144.549C205.173 144.549 193.638 161.561 178.03 165.835Z" fill="white" style="fill:white;fill:white;fill-opacity:1;"/>
<path d="M145.837 121.565C159.571 93.5571 167.417 91.0662 167.417 91.0662H141.14C141.14 91.0662 152.576 97.7322 145.837 121.565Z" fill="white" style="fill:white;fill:white;fill-opacity:1;"/>
<path d="M120 116.159C110.891 96.3452 116.892 91.9437 118.879 91.0662H88.2316H85.8338C93.4246 91.0662 97.596 102.063 97.596 102.063L116.679 144.747C119.744 151.527 123.674 160.273 126.101 165.821V165.835L135.82 149.418C134.387 146.573 121.39 119.244 120.808 117.971C120.553 117.376 120.269 116.768 120 116.159Z" fill="white" style="fill:white;fill:white;fill-opacity:1;"/>
</svg>
