<svg width="1787" height="183" viewBox="0 0 1787 183" fill="none" xmlns="http://www.w3.org/2000/svg">
<path d="M180.079 2.13607H144.121C144.121 2.13607 148.724 6.18696 153.614 13.1313C153.326 13.1313 153.326 13.1313 153.326 13.1313C136.642 55.3763 90.9026 147.968 81.4096 177.192C70.7659 146.811 53.7936 51.0361 42.287 10.2379C41.7116 7.34436 40.8486 4.74022 39.698 2.13607H4.60266C62.7113 86.9154 6.04099 127.135 0 180.665H42.5746C23.301 172.273 10.9313 148.836 26.4653 110.642C31.931 94.4385 45.4513 53.3509 43.7253 22.1012C53.506 69.2651 69.3276 143.628 80.2589 180.665H81.9849C94.0669 144.785 140.669 54.7976 155.052 15.7355C156.203 17.4716 157.354 19.7864 158.504 22.1012C163.107 34.2538 163.107 50.7468 154.765 72.1586C148.436 92.1237 130.313 150.283 142.107 180.665H175.764C120.532 96.1746 174.326 55.6657 180.079 2.13607Z" fill="black"/>
<path d="M286.372 113.536C285.221 111.221 284.071 108.906 282.92 106.881C276.879 94.7278 271.126 84.3113 267.961 78.5243C252.427 45.2491 241.784 23.5479 254.153 2.42542H215.894C216.757 4.16153 217.907 6.18696 218.77 7.92307C229.414 28.7562 231.428 46.9852 228.263 63.1888C227.4 66.661 226.537 70.1332 225.387 73.6054C211.866 114.982 168.429 145.075 164.977 180.954H199.209C188.853 163.593 194.319 145.653 205.25 121.348H283.495C286.372 137.262 284.071 155.202 273.715 175.456C272.852 177.192 271.989 178.928 270.838 180.954H300.18C306.221 162.725 296.728 135.815 286.372 113.536ZM206.113 119.323C208.127 114.693 210.428 110.063 213.017 104.855C215.894 99.0681 221.935 88.6515 227.976 76.4988C229.126 74.184 230.277 72.1586 231.14 69.8438C234.88 62.3207 238.044 54.5083 240.921 46.4065C255.016 66.0823 272.852 86.0474 280.619 109.774C281.482 112.957 282.345 116.14 283.208 119.323H206.113Z" fill="black"/>
<path d="M299.793 3.58282V44.3811C299.793 44.3811 321.656 6.18696 359.628 5.89762C370.559 19.2077 363.08 37.4367 349.847 73.6054C343.519 93.5704 326.546 151.73 337.765 182.111H369.696C317.916 98.7787 366.532 58.2698 373.436 6.18696V5.89762H374.874C412.846 6.18696 434.997 44.3811 434.997 44.3811V3.58282H299.793Z" fill="black"/>
<path d="M440.255 3.58282V44.3811C440.255 44.3811 462.118 6.18696 500.09 5.89762C511.021 19.2077 503.542 37.4367 490.309 73.6054C483.981 93.5704 467.008 151.73 478.227 182.111H510.158C458.378 98.7787 506.994 58.2698 513.898 6.18696V5.89762H515.336C553.308 6.18696 575.459 44.3811 575.459 44.3811V3.58282H440.255Z" fill="black"/>
<path d="M698.948 110.931C705.852 90.9663 724.838 32.8071 712.181 2.42542H677.086C701.25 37.726 705.565 65.5036 701.825 89.5196H612.073C619.553 63.1888 627.895 24.9947 618.402 2.13607H583.307C641.415 86.9154 584.745 127.135 578.704 180.665H621.279C602.005 172.273 589.635 148.836 605.169 110.642C606.895 106.012 609.197 99.3574 611.498 91.545H701.537C695.784 123.952 675.935 150.283 672.483 180.954H715.058C695.784 172.563 683.414 149.126 698.948 110.931Z" fill="black"/>
<path d="M746.822 110.931C753.726 90.9663 772.712 32.8071 760.055 2.42542H724.96C783.068 86.9154 726.398 127.424 720.357 180.954H762.932C743.658 172.563 731.288 149.126 746.822 110.931Z" fill="black"/>
<path d="M876.115 75.0521C887.046 37.4367 868.636 0.110637 824.335 0.110637C824.335 0.110637 797.294 -3.07222 781.473 24.7053C740.912 96.7533 882.731 86.3367 865.471 133.79C848.211 180.954 760.185 152.308 769.391 108.327C769.678 106.302 767.952 106.881 767.952 108.327C750.405 202.655 866.334 203.234 874.677 134.658C878.992 86.6261 762.487 88.6515 782.623 46.1172C803.623 2.42542 882.444 28.1775 874.677 75.0521H876.115Z" fill="black"/>
<path d="M1083.93 110.931C1084.5 109.195 1085.37 106.881 1086.23 104.566H1012.01V106.302H1082.78C1079.9 115.85 1076.16 125.11 1072.42 133.79C1063.21 147.968 1049.41 157.227 1032.15 158.963C989.285 163.304 964.258 130.897 966.847 91.545V91.2557C976.915 20.0757 1022.37 23.5479 1022.37 23.5479C1054.87 22.9692 1085.08 44.9598 1086.8 86.0474H1089.68C1091.69 73.6054 1092.27 59.4272 1090.54 45.2491C1085.94 14.2887 1058.04 -6.25505 1025.53 1.84673C990.435 10.5272 969.148 51.3255 964.833 92.4131C962.819 109.485 961.093 123.663 963.682 136.105C963.682 136.105 963.682 136.394 963.97 136.683V136.394C974.614 187.32 1029.56 200.051 1063.79 155.491C1060.91 163.882 1058.32 172.273 1057.46 180.954H1100.04C1080.76 172.563 1068.11 149.126 1083.93 110.931Z" fill="black"/>
<path d="M1213.7 113.536C1212.55 111.221 1211.4 108.906 1210.25 106.881C1204.21 94.7278 1198.46 84.3113 1195.29 78.5243C1179.76 45.2491 1169.11 23.5479 1181.48 2.42542H1143.22C1144.09 4.16153 1145.24 6.18696 1146.1 7.92307C1156.74 28.7562 1158.76 46.9852 1155.59 63.1888C1154.73 66.661 1153.87 70.1332 1152.72 73.6054C1139.2 114.982 1095.76 145.075 1092.31 180.954H1126.54C1116.18 163.593 1121.65 145.653 1132.58 121.348H1210.83C1213.7 137.262 1211.4 155.202 1201.05 175.456C1200.18 177.192 1199.32 178.928 1198.17 180.954H1227.51C1233.55 162.725 1224.06 135.815 1213.7 113.536ZM1133.44 119.323C1135.46 114.693 1137.76 110.063 1140.35 104.855C1143.22 99.0681 1149.27 88.6515 1155.31 76.4988C1156.46 74.184 1157.61 72.1586 1158.47 69.8438C1162.21 62.3207 1165.37 54.5083 1168.25 46.4065C1182.35 66.0823 1200.18 86.0474 1207.95 109.774C1208.81 112.957 1209.68 116.14 1210.54 119.323H1133.44Z" fill="black"/>
<path d="M1303.73 115.561C1320.41 113.246 1335.95 102.83 1344 85.758V86.0474C1344.58 84.6006 1357.23 56.8231 1352.92 30.203C1349.47 9.65916 1327.61 -4.22962 1302.29 1.26804C1288.77 4.16153 1277.84 12.2633 1269.78 23.2586C1271.8 16.3142 1273.24 9.36982 1273.81 2.42542H1238.43C1251.66 9.08045 1261.15 26.4414 1256.55 53.6403C1256.55 54.219 1256.26 54.5083 1256.26 55.087C1256.26 54.7976 1256.26 54.7976 1256.26 54.5083C1255.4 60.0059 1253.96 66.0823 1251.66 72.1586C1250.51 76.4988 1248.78 82.8645 1247.06 90.0983C1246.77 91.545 1246.2 93.2811 1245.91 95.0172C1245.33 97.6213 1244.47 100.515 1243.89 103.408C1243.03 107.749 1242.17 112.089 1241.31 116.429C1237.28 138.998 1234.98 164.172 1240.73 180.665H1270.07C1257.7 159.253 1251.66 140.445 1249.36 123.663C1248.5 117.586 1248.5 111.799 1248.5 106.012C1248.5 101.962 1248.78 97.9107 1249.36 93.8598C1260.58 107.749 1275.83 114.982 1290.78 116.14C1310.92 138.42 1324.73 160.41 1315.81 180.665H1349.76C1347.17 155.491 1326.74 134.947 1303.73 115.561ZM1280.14 96.7533C1277.26 96.7533 1274.39 96.4639 1271.51 96.1746C1263.74 95.5959 1256.26 94.1491 1249.94 91.2557C1251.09 81.9965 1253.39 73.316 1256.26 64.9249C1258.85 56.2444 1261.73 48.1426 1264.61 40.0408C1277.55 25.284 1297.69 23.2586 1297.69 23.2586C1324.15 19.497 1350.62 31.3603 1350.33 60.2953C1350.04 60.5846 1350.04 60.874 1350.04 61.1633C1347.17 84.89 1327.89 90.9663 1310.06 94.4385C1303.15 95.8852 1291.93 97.0427 1280.14 96.7533Z" fill="black"/>
<path d="M1506.77 2.42542H1466.21C1484.62 10.5272 1496.7 33.9645 1481.46 72.1586C1475.99 89.5196 1461.61 135.237 1465.64 167.065L1395.44 2.42542C1395.44 2.42542 1395.45 2.42542 1395.16 2.42542H1360.06C1418.17 86.9154 1361.5 127.424 1355.46 180.954H1398.03C1378.76 172.563 1366.39 149.126 1381.92 110.931C1387.97 93.8598 1402.64 48.1426 1398.61 16.3142L1468.51 180.086C1468.8 180.375 1468.8 180.665 1468.8 180.665H1502.46C1447.22 96.1746 1501.02 55.6657 1506.77 2.42542Z" fill="black"/>
<path d="M1533.13 110.931C1540.03 90.9663 1559.02 32.8071 1546.36 2.42542H1511.27C1569.38 86.9154 1512.7 127.424 1506.66 180.954H1549.24C1529.96 172.563 1517.6 149.126 1533.13 110.931Z" fill="black"/>
<path d="M1556.83 80.8391C1556.83 79.103 1557.41 77.3669 1557.7 75.9201C1557.7 75.6308 1557.7 75.3414 1557.7 75.0521C1557.99 74.4734 1557.99 73.8947 1557.99 73.8947C1572.37 20.6544 1610.05 23.5479 1610.05 23.5479C1629.33 22.9692 1650.61 32.2284 1656.66 50.1681L1669.31 22.3905C1657.81 5.02956 1636.81 -3.94025 1613.22 1.84673C1583.01 9.36981 1563.16 40.3302 1555.4 74.7627C1555.11 77.0775 1554.82 78.8136 1554.82 80.5497C1555.11 91.545 1565.18 91.545 1565.18 91.545C1559.14 92.4131 1554.53 96.1746 1552.23 101.672C1552.23 101.962 1552.23 101.962 1552.23 101.962C1551.94 102.54 1551.94 102.83 1551.66 103.119C1551.66 103.408 1551.66 103.987 1551.37 104.276C1551.37 104.855 1551.37 105.144 1551.08 105.434C1551.08 105.723 1551.08 106.012 1551.08 106.302C1551.08 106.881 1550.79 106.881 1550.79 107.17C1550.79 107.459 1550.79 107.459 1550.79 107.749C1549.93 118.165 1549.64 127.424 1551.37 136.105C1551.37 136.105 1551.37 136.394 1551.66 136.683C1564.03 194.553 1633.64 202.944 1664.71 133.211H1660.68C1651.19 147.679 1637.38 157.227 1619.83 158.963C1583.01 162.725 1559.42 139.288 1555.11 107.749C1555.11 107.459 1555.11 107.17 1555.11 106.881C1553.96 94.4385 1562.88 92.7024 1566.62 92.4131H1639.11V90.3876H1567.77C1559.14 90.677 1557.12 85.758 1556.83 81.7071C1556.83 81.7071 1556.83 81.4178 1556.83 81.1284V80.8391Z" fill="black"/>
<path d="M1736.91 115.561C1753.6 113.246 1769.13 102.83 1777.19 85.758V86.0474C1777.76 84.6006 1790.42 56.8231 1786.1 30.203C1782.65 9.65916 1760.79 -4.22962 1735.48 1.26804C1721.96 4.16153 1711.02 12.2633 1702.97 23.2586C1704.98 16.3142 1706.42 9.36982 1707 2.42542H1671.61C1684.85 9.08045 1694.34 26.4414 1689.74 53.6403C1689.74 54.219 1689.45 54.5083 1689.45 55.087C1689.45 54.7976 1689.45 54.7976 1689.45 54.5083C1688.59 60.0059 1687.15 66.0823 1684.85 72.1586C1683.7 76.4988 1681.97 82.8645 1680.24 90.0983C1679.96 91.545 1679.38 93.2811 1679.09 95.0172C1678.52 97.6213 1677.65 100.515 1677.08 103.408C1676.22 107.749 1675.35 112.089 1674.49 116.429C1670.46 138.998 1668.16 164.172 1673.92 180.665H1703.26C1690.89 159.253 1684.85 140.445 1682.55 123.663C1681.68 117.586 1681.68 111.799 1681.68 106.012C1681.68 101.962 1681.97 97.9107 1682.55 93.8598C1693.76 107.749 1709.01 114.982 1723.97 116.14C1744.11 138.42 1757.91 160.41 1749 180.665H1782.94C1780.35 155.491 1759.93 134.947 1736.91 115.561ZM1713.33 96.7533C1710.45 96.7533 1707.57 96.4639 1704.7 96.1746C1696.93 95.5959 1689.45 94.1491 1683.12 91.2557C1684.27 81.9965 1686.57 73.316 1689.45 64.9249C1692.04 56.2444 1694.91 48.1426 1697.79 40.0408C1710.74 25.284 1730.87 23.2586 1730.87 23.2586C1757.34 19.497 1783.8 31.3603 1783.52 60.2953C1783.23 60.5846 1783.23 60.874 1783.23 61.1633C1780.35 84.89 1761.08 90.9663 1743.24 94.4385C1736.34 95.8852 1725.12 97.0427 1713.33 96.7533Z" fill="black"/>
</svg>
